name Walk4.mot
datacolumns 19
datarows 22
range 2.07500000 2.09600000
endheader

                time	   L_ground_force_vx	   L_ground_force_vy	   L_ground_force_vz	   L_ground_force_px	   L_ground_force_py	   L_ground_force_pz	   R_ground_force_vx	   R_ground_force_vy	   R_ground_force_vz	   R_ground_force_px	   R_ground_force_py	   R_ground_force_pz	   L_ground_torque_x	   L_ground_torque_y	   L_ground_torque_z	   R_ground_torque_x	   R_ground_torque_y	   R_ground_torque_z	
          2.07500000	        -18.39876693	        621.71853855	        -52.03938659	          0.19399337	          0.00000000	          0.04729412	          0.00000000	          0.00000000	          0.00000000	          0.00000000	          0.00000000	          0.00000000	          0.00000000	          6.47858979	          0.00000000	          0.00000000	          0.00000000	          0.00000000	
          2.07600000	        -18.14103448	        620.65163221	        -51.89784185	          0.19453088	          0.00000000	          0.04732268	          0.00000000	          0.00000000	          0.00000000	          0.00000000	          0.00000000	          0.00000000	          0.00000000	          6.44073622	          0.00000000	          0.00000000	          0.00000000	          0.00000000	
          2.07700000	        -17.87931615	        619.63418065	        -51.76227959	          0.19503070	          0.00000000	          0.04733617	          0.00000000	          0.00000000	          0.00000000	          0.00000000	          0.00000000	          0.00000000	          0.00000000	          6.41643929	          0.00000000	          0.00000000	          0.00000000	          0.00000000	
          2.07800000	        -17.61449298	        618.68874271	        -51.62617247	          0.19547909	          0.00000000	          0.04734185	          0.00000000	          0.00000000	          0.00000000	          0.00000000	          0.00000000	          0.00000000	          0.00000000	          6.39851339	          0.00000000	          0.00000000	          0.00000000	          0.00000000	
          2.07900000	        -17.34945730	        617.83678559	        -51.48422055	          0.19589267	          0.00000000	          0.04736095	          0.00000000	          0.00000000	          0.00000000	          0.00000000	          0.00000000	          0.00000000	          0.00000000	          6.37694178	          0.00000000	          0.00000000	          0.00000000	          0.00000000	
          2.08000000	        -17.08940115	        617.06919514	        -51.33168559	          0.19629698	          0.00000000	          0.04740836	          0.00000000	          0.00000000	          0.00000000	          0.00000000	          0.00000000	          0.00000000	          0.00000000	          6.34418302	          0.00000000	          0.00000000	          0.00000000	          0.00000000	
          2.08100000	        -16.83599774	        616.37445710	        -51.16424939	          0.19672444	          0.00000000	          0.04748658	          0.00000000	          0.00000000	          0.00000000	          0.00000000	          0.00000000	          0.00000000	          0.00000000	          6.29925278	          0.00000000	          0.00000000	          0.00000000	          0.00000000	
          2.08200000	        -16.58832758	        615.75478522	        -50.98244397	          0.19720358	          0.00000000	          0.04758168	          0.00000000	          0.00000000	          0.00000000	          0.00000000	          0.00000000	          0.00000000	          0.00000000	          6.24640238	          0.00000000	          0.00000000	          0.00000000	          0.00000000	
          2.08300000	        -16.34834469	        615.20117218	        -50.79371154	          0.19773068	          0.00000000	          0.04766152	          0.00000000	          0.00000000	          0.00000000	          0.00000000	          0.00000000	          0.00000000	          0.00000000	          6.19035995	          0.00000000	          0.00000000	          0.00000000	          0.00000000	
          2.08400000	        -16.11867955	        614.68320436	        -50.60770519	          0.19825927	          0.00000000	          0.04768935	          0.00000000	          0.00000000	          0.00000000	          0.00000000	          0.00000000	          0.00000000	          0.00000000	          6.13435629	          0.00000000	          0.00000000	          0.00000000	          0.00000000	
          2.08500000	        -15.89445622	        614.18401906	        -50.43353026	          0.19872621	          0.00000000	          0.04765097	          0.00000000	          0.00000000	          0.00000000	          0.00000000	          0.00000000	          0.00000000	          0.00000000	          6.08220692	          0.00000000	          0.00000000	          0.00000000	          0.00000000	
          2.08600000	        -15.66446374	        613.73214123	        -50.27883854	          0.19909474	          0.00000000	          0.04757078	          0.00000000	          0.00000000	          0.00000000	          0.00000000	          0.00000000	          0.00000000	          0.00000000	          6.03908064	          0.00000000	          0.00000000	          0.00000000	          0.00000000	
          2.08700000	        -15.42198150	        613.37807395	        -50.14696410	          0.19938037	          0.00000000	          0.04749178	          0.00000000	          0.00000000	          0.00000000	          0.00000000	          0.00000000	          0.00000000	          0.00000000	          6.00830492	          0.00000000	          0.00000000	          0.00000000	          0.00000000	
          2.08800000	        -15.16708512	        613.15189302	        -50.03511739	          0.19964427	          0.00000000	          0.04744354	          0.00000000	          0.00000000	          0.00000000	          0.00000000	          0.00000000	          0.00000000	          0.00000000	          5.98673593	          0.00000000	          0.00000000	          0.00000000	          0.00000000	
          2.08900000	        -14.90232898	        613.04635326	        -49.93640796	          0.19995340	          0.00000000	          0.04743057	          0.00000000	          0.00000000	          0.00000000	          0.00000000	          0.00000000	          0.00000000	          0.00000000	          5.96457365	          0.00000000	          0.00000000	          0.00000000	          0.00000000	
          2.09000000	        -14.63451288	        613.02343231	        -49.84555230	          0.20034364	          0.00000000	          0.04744031	          0.00000000	          0.00000000	          0.00000000	          0.00000000	          0.00000000	          0.00000000	          0.00000000	          5.93202784	          0.00000000	          0.00000000	          0.00000000	          0.00000000	
          2.09100000	        -14.37507105	        613.04065591	        -49.76029459	          0.20081747	          0.00000000	          0.04746475	          0.00000000	          0.00000000	          0.00000000	          0.00000000	          0.00000000	          0.00000000	          0.00000000	          5.88683553	          0.00000000	          0.00000000	          0.00000000	          0.00000000	
          2.09200000	        -14.13373634	        613.07631671	        -49.67751904	          0.20134756	          0.00000000	          0.04751587	          0.00000000	          0.00000000	          0.00000000	          0.00000000	          0.00000000	          0.00000000	          0.00000000	          5.83566626	          0.00000000	          0.00000000	          0.00000000	          0.00000000	
          2.09300000	        -13.91087760	        613.12747830	        -49.59484959	          0.20188023	          0.00000000	          0.04760505	          0.00000000	          0.00000000	          0.00000000	          0.00000000	          0.00000000	          0.00000000	          0.00000000	          5.78819012	          0.00000000	          0.00000000	          0.00000000	          0.00000000	
          2.09400000	        -13.69386797	        613.19784073	        -49.51448905	          0.20235844	          0.00000000	          0.04771021	          0.00000000	          0.00000000	          0.00000000	          0.00000000	          0.00000000	          0.00000000	          0.00000000	          5.74996134	          0.00000000	          0.00000000	          0.00000000	          0.00000000	
          2.09500000	        -13.46459517	        613.30145987	        -49.44343646	          0.20276054	          0.00000000	          0.04778785	          0.00000000	          0.00000000	          0.00000000	          0.00000000	          0.00000000	          0.00000000	          0.00000000	          5.72040332	          0.00000000	          0.00000000	          0.00000000	          0.00000000	
          2.09600000	        -13.21556489	        613.45345671	        -49.39150310	          0.20312321	          0.00000000	          0.04781289	          0.00000000	          0.00000000	          0.00000000	          0.00000000	          0.00000000	          0.00000000	          0.00000000	          5.69441230	          0.00000000	          0.00000000	          0.00000000	          0.00000000	
